<svg width="22" height="22" viewBox="0 0 22 22" fill="none" xmlns="http://www.w3.org/2000/svg">
<path d="M10.0834 19.0208C5.15171 19.0208 1.14587 15.0149 1.14587 10.0833C1.14587 5.15159 5.15171 1.14575 10.0834 1.14575C15.015 1.14575 19.0209 5.15159 19.0209 10.0833C19.0209 15.0149 15.015 19.0208 10.0834 19.0208ZM10.0834 2.52075C5.91254 2.52075 2.52087 5.91242 2.52087 10.0833C2.52087 14.2541 5.91254 17.6458 10.0834 17.6458C14.2542 17.6458 17.6459 14.2541 17.6459 10.0833C17.6459 5.91242 14.2542 2.52075 10.0834 2.52075Z" fill="#1A1E25"/>
<path d="M18.48 20.8908C18.4066 20.8908 18.3333 20.8817 18.2691 20.8725C17.8383 20.8175 17.0591 20.5242 16.6191 19.2133C16.39 18.5258 16.4725 17.8383 16.8483 17.3158C17.2241 16.7933 17.8566 16.5 18.5808 16.5C19.5158 16.5 20.2491 16.8575 20.5791 17.49C20.9091 18.1225 20.8175 18.9292 20.295 19.7083C19.6441 20.6892 18.9383 20.8908 18.48 20.8908ZM17.93 18.7825C18.0858 19.2592 18.3058 19.4975 18.4525 19.5158C18.5991 19.5342 18.8741 19.36 19.1583 18.9475C19.4241 18.5533 19.4425 18.2692 19.3783 18.1408C19.3141 18.0125 19.0575 17.875 18.5808 17.875C18.2966 17.875 18.0858 17.9667 17.9666 18.1225C17.8566 18.2783 17.8383 18.5167 17.93 18.7825Z" fill="#1A1E25"/>
</svg>
